<svg xmlns="http://www.w3.org/2000/svg" width="25.51" height="22.92" viewBox="0 0 25.51 22.92"><defs><style>.a{fill:#e4b4b9;}</style></defs><g transform="translate(0 -26.001)"><g transform="translate(18.413 43.81)"><path class="a" d="M371.423,383.526a.5.5,0,0,0-.693.126,5.649,5.649,0,0,1-.512.634,6.08,6.08,0,0,1-.487.458.5.5,0,1,0,.646.759,6.989,6.989,0,0,0,.57-.537,6.628,6.628,0,0,0,.6-.746A.5.5,0,0,0,371.423,383.526Z" transform="translate(-369.556 -383.437)"/></g><g transform="translate(17.135 45.846)"><g transform="translate(0 0)"><path class="a" d="M344.872,424.589a.5.5,0,0,0-.663-.24l-.016.007a.5.5,0,1,0,.4.912l.036-.016A.5.5,0,0,0,344.872,424.589Z" transform="translate(-343.896 -424.302)"/></g></g><g transform="translate(0 26.001)"><g transform="translate(0 0)"><path class="a" d="M24.022,26H1.489A1.49,1.49,0,0,0,0,27.49V41.453a1.49,1.49,0,0,0,1.489,1.488H11.981a8.328,8.328,0,0,0,2.33,4.069,6.512,6.512,0,0,0,3.322,1.91,6.513,6.513,0,0,0,3.322-1.91,8.328,8.328,0,0,0,2.33-4.069h.737a1.49,1.49,0,0,0,1.489-1.488V27.49A1.49,1.49,0,0,0,24.022,26Zm-1.5,14.9a7.355,7.355,0,0,1-2.228,5.365,6.239,6.239,0,0,1-2.66,1.659,6.239,6.239,0,0,1-2.66-1.659A7.355,7.355,0,0,1,12.745,40.9V38.446a22.3,22.3,0,0,0,4.888-2.067,23.073,23.073,0,0,0,4.888,2.067Zm1.993.553a.493.493,0,0,1-.492.492h-.564a9.194,9.194,0,0,0,.059-1.045V38.068a.5.5,0,0,0-.368-.481,21.98,21.98,0,0,1-5.265-2.214.5.5,0,0,0-.5,0,21.377,21.377,0,0,1-5.265,2.214.5.5,0,0,0-.368.481V40.9a9.182,9.182,0,0,0,.059,1.045H1.489A.493.493,0,0,1,1,41.453V32.976H24.514Zm0-9.473H1V29.987H24.514Zm0-2.989H1v-1.5A.493.493,0,0,1,1.489,27H24.022a.493.493,0,0,1,.492.492Z" transform="translate(0 -26.001)"/></g></g><g transform="translate(1.993 36.464)"><path class="a" d="M43.987,236a2.244,2.244,0,0,0-.872.177,2.242,2.242,0,1,0,0,4.131A2.242,2.242,0,1,0,43.987,236Zm-1.744,3.488a1.246,1.246,0,1,1,1.246-1.246A1.247,1.247,0,0,1,42.243,239.491Zm1.867-.006a2.236,2.236,0,0,0,0-2.479,1.246,1.246,0,0,1,0,2.479Z" transform="translate(-40.001 -236.003)"/></g><g transform="translate(1.993 34.222)"><path class="a" d="M43.06,191H40.5a.5.5,0,1,0,0,1H43.06a.5.5,0,1,0,0-1Z" transform="translate(-39.999 -191.001)"/></g><g transform="translate(6.005 34.222)"><path class="a" d="M121.044,191h-.024a.5.5,0,1,0,0,1h.024a.5.5,0,1,0,0-1Z" transform="translate(-120.522 -191.001)"/></g><g transform="translate(14.752 39.608)"><path class="a" d="M301.693,299.244a.5.5,0,0,0-.7,0l-2.664,2.664-1.4-1.4a.5.5,0,1,0-.7.7l1.749,1.749a.5.5,0,0,0,.7,0l3.017-3.017A.5.5,0,0,0,301.693,299.244Z" transform="translate(-296.077 -299.098)"/></g></g></svg>